<svg id="favicon" viewBox="0 0 336 482" xmlns="http://www.w3.org/2000/svg">
  <path d="M170.853 169.877C209.88 169.877 241.518 138.238 241.518 99.2107C241.518 60.183 209.88 28.5448 170.853 28.5448C131.825 28.5448 100.187 60.183 100.187 99.2107C100.187 138.238 131.825 169.877 170.853 169.877Z" fill="#FEB8B8"/>
  <path d="M236.855 38.246C226.29 21.0899 209.752 8.44813 190.425 2.75434L181.75 9.08513V0.864782C177.108 0.15437 172.41 -0.119301 167.718 0.0473682L160.233 6.81957V0.610006C149.151 1.98709 138.475 5.64536 128.878 11.3541C119.28 17.0629 110.969 24.6983 104.47 33.7789C88.2158 57.2111 85.472 89.8105 101.459 113.431C105.847 99.9436 111.174 87.2889 115.563 73.803C119.013 74.2732 122.508 74.2902 125.962 73.8535L131.301 61.3949L132.793 73.3262C149.343 71.8849 173.889 68.7188 189.578 65.8184L188.052 56.6648L197.18 64.2709C201.986 63.1646 204.84 62.1606 204.605 61.3936C216.273 80.2048 230.553 92.2192 242.22 111.03C246.652 84.5056 251.752 62.4507 236.855 38.246Z" fill="#2F2E41"/>
  <path d="M322.835 280.93C320.405 266.311 317.898 251.411 311.104 238.241C306.639 229.615 299.55 221.395 289.994 219.689C288.112 219.521 286.262 219.093 284.498 218.417C281.698 217.068 244.073 195.589 238.092 191.848C232.958 188.637 224.852 182.69 220.765 182.69C216.654 182.6 200.888 186.269 139.352 181.459C139.352 181.459 122.447 188.122 109.366 196.202C109.168 196.071 45.4971 230.262 43.1051 230.172C38.575 229.982 34.3643 232.882 31.7673 236.535C29.171 240.187 27.953 244.709 26.6779 249.08C40.5846 280.05 53.3086 311.06 67.2167 342.03C67.8679 343.196 68.2139 344.509 68.2225 345.844C67.943 347.231 67.3513 348.535 66.4923 349.659C59.672 360.615 59.8889 374.395 60.6339 387.272C61.3796 400.149 62.3015 413.75 56.5469 425.292C54.9816 428.461 52.9461 431.361 51.4574 434.53C47.9711 441.707 46.7112 464.661 48.7474 472.372L303.868 479.68C298.383 464.602 322.835 280.93 322.835 280.93Z" fill="#0081C7"/>
  <path d="M4.62542 343.403C4.11636 347.085 4.0651 350.817 4.47283 354.512L8.12935 407.024C8.47266 411.974 8.81051 416.911 9.27507 421.848C10.1524 431.429 11.463 440.934 13.0896 450.426C13.1264 451.773 13.6962 453.051 14.6742 453.979C15.6522 454.907 16.9583 455.409 18.306 455.375C34.402 458.781 51.0322 458.645 67.4592 457.717C92.5262 456.318 156.657 453.671 160.575 448.581C164.493 443.491 162.21 435.259 157.101 431.143C151.992 427.028 67.3625 416.994 67.3625 416.994C68.1894 410.441 70.6839 404.27 73.0503 398.048C77.3007 387.013 81.2706 375.616 81.3469 363.795C81.4232 351.974 76.9697 339.545 67.2862 332.773C59.3206 327.213 49.0649 326.182 39.3582 326.411C32.2958 326.614 20.0933 324.922 13.6427 327.683C8.53806 329.931 5.57906 338.405 4.62542 343.403Z" fill="#FBBEBE"/>
  <path d="M25.942 250.023C24.7027 251.321 23.7416 252.858 23.1178 254.541C12.8327 277.72 6.75764 302.546 5.1772 327.856C5.20495 329.09 4.9205 330.312 4.35026 331.406C3.78792 332.135 3.16197 332.812 2.47978 333.429C1.88501 334.134 1.43493 334.95 1.15526 335.829C0.875585 336.708 0.771806 337.633 0.849807 338.552C0.927808 339.472 1.18608 340.366 1.60988 341.186C2.03368 342.005 2.6147 342.733 3.31978 343.328C3.43542 343.425 3.5541 343.519 3.67586 343.609C5.77523 339.658 10.8009 338.367 15.268 338.023C36.6567 336.331 57.5496 346.282 79.0023 345.531C77.4888 340.301 75.3118 335.275 74.0775 329.983C68.6186 306.481 82.2338 280.894 73.8868 258.257C72.2193 253.727 69.4333 249.274 65.0438 247.289C63.2262 246.556 61.3242 246.052 59.3819 245.79C53.9612 244.811 43.1701 240.624 37.9292 242.304C35.9947 242.928 35.2318 244.747 33.6283 245.846C31.1924 247.402 27.961 247.974 25.942 250.023Z" fill="#0081C7"/>
  <path d="M322.988 327.683C316.537 324.922 304.334 326.614 297.272 326.411C287.565 326.182 277.31 327.213 269.344 332.773C259.661 339.545 255.207 351.974 255.283 363.795C255.36 375.616 259.33 387.013 263.58 398.048C265.946 404.27 268.441 410.441 269.268 416.994C269.268 416.994 184.638 427.028 179.529 431.143C174.42 435.259 172.137 443.491 176.055 448.581C179.973 453.671 302.228 458.781 318.324 455.375C319.672 455.409 320.978 454.907 321.956 453.979C322.934 453.051 323.504 451.773 323.541 450.426C325.167 440.934 326.478 431.429 327.355 421.848C327.82 416.911 328.158 411.974 328.501 407.024L332.157 354.512C332.565 350.817 332.514 347.086 332.005 343.403C331.051 338.405 328.092 329.931 322.988 327.683Z" fill="#FBBEBE"/>
  <path d="M303.002 245.846C301.399 244.747 300.636 242.928 298.701 242.304C293.46 240.624 282.669 244.811 277.248 245.79C275.306 246.052 273.404 246.556 271.587 247.289C267.197 249.274 264.411 253.727 262.744 258.257C254.397 280.894 268.012 306.481 262.553 329.983C261.319 335.275 259.142 340.301 257.628 345.531C279.081 346.282 299.974 336.331 321.362 338.023C325.829 338.367 330.855 339.658 332.954 343.609C333.076 343.519 333.195 343.425 333.311 343.328C334.016 342.733 334.597 342.005 335.021 341.186C335.444 340.366 335.703 339.472 335.781 338.552C335.859 337.633 335.755 336.708 335.475 335.829C335.195 334.95 334.745 334.135 334.151 333.429C333.468 332.812 332.842 332.135 332.28 331.406C331.71 330.312 331.425 329.09 331.453 327.856C329.873 302.546 323.798 277.72 313.513 254.541C312.889 252.858 311.928 251.321 310.688 250.023C308.669 247.974 305.438 247.402 303.002 245.846Z" fill="#0081C7"/>
  <path d="M309.888 481.788H47.8567C44.7975 481.785 41.8645 480.568 39.7013 478.405C37.538 476.242 36.321 473.309 36.3174 470.25V311.283C36.321 308.224 37.538 305.291 39.7013 303.128C41.8645 300.965 44.7975 299.748 47.8567 299.744H309.888C312.947 299.748 315.88 300.965 318.043 303.128C320.206 305.291 321.423 308.224 321.427 311.283V470.25C321.423 473.309 320.206 476.242 318.043 478.405C315.88 480.568 312.947 481.785 309.888 481.788Z" fill="#3F3D56"/>
  <path d="M178.237 398.401C182.453 398.401 185.871 394.983 185.871 390.766C185.871 386.55 182.453 383.132 178.237 383.132C174.02 383.132 170.602 386.55 170.602 390.766C170.602 394.983 174.02 398.401 178.237 398.401Z" fill="white"/>
  <path d="M105.871 125.549C94.5161 125.549 85.3113 115.597 85.3113 103.32V92.205C85.3113 79.928 94.5161 69.9756 105.871 69.9756V125.549H105.871Z" fill="#0081C7"/>
  <path d="M237.094 69.9756C248.449 69.9756 257.654 79.928 257.654 92.205V103.32C257.654 115.597 248.449 125.549 237.094 125.549V69.9756Z" fill="#0081C7"/>
  <path d="M247.868 93.9516H244.606C244.606 49.2216 210.949 12.8309 169.58 12.8309C128.21 12.8309 94.5537 49.2216 94.5537 93.9516H91.2917C91.2917 47.2767 126.412 9.30399 169.58 9.30399C212.748 9.30401 247.868 47.2768 247.868 93.9516Z" fill="#0081C7"/>
</svg>
