<svg id="junit" xmlns="http://www.w3.org/2000/svg" viewBox="0 0 400 400">
  <g fill-rule="evenodd">
    <path d="M178.3.274c-1.925.087-3.5.33-3.5.542 0 .211-1.249.384-2.776.384-1.527 0-2.888.18-3.024.4-.136.22-1.227.4-2.424.4-1.197 0-2.176.18-2.176.4 0 .22-.99.4-2.2.4-1.21 0-2.2.18-2.2.4 0 .22-.799.4-1.776.4s-1.888.18-2.024.4c-.136.22-.957.4-1.824.4-.867 0-1.576.18-1.576.4 0 .22-.72.4-1.6.4-.88 0-1.6.18-1.6.4 0 .22-.619.4-1.376.4-.757 0-1.488.18-1.624.4-.136.22-.777.4-1.424.4-.647 0-1.176.18-1.176.4 0 .22-.63.4-1.4.4-.77 0-1.4.18-1.4.4 0 .22-.429.4-.954.4-.891 0-4.228.885-6.046 1.603-.44.174-1.43.533-2.2.797-1.693.582-3.16 1.171-4.095 1.647-.382.194-1.057.353-1.5.353-.443 0-.805.18-.805.4 0 .22-.36.4-.8.4-.44 0-.8.18-.8.4 0 .22-.439.4-.976.4-.537 0-1.088.18-1.224.4-.136.22-.597.4-1.024.4-.427 0-.776.18-.776.4 0 .22-.36.4-.8.4-.44 0-.8.18-.8.4 0 .22-.272.4-.605.4-.333 0-.918.171-1.3.38s-2.315 1.145-4.295 2.081c-1.98.935-3.66 1.844-3.733 2.02-.074.175-.479.319-.9.319-.422 0-.767.18-.767.4 0 .22-.36.4-.8.4-.44 0-.8.18-.8.4 0 .22-.27.4-.6.4-.33 0-.6.18-.6.4 0 .22-.27.4-.6.4-.33 0-.6.18-.6.4 0 .22-.291.4-.646.4-.712 0-4.447 1.909-5.283 2.7-.29.275-.682.5-.871.5-.189 0-.581.225-.871.5-.291.275-1.069.769-1.729 1.097-.66.329-1.491.914-1.847 1.3-.356.387-.901.703-1.212.703-.31 0-.824.36-1.141.8-.317.44-.857.8-1.2.8-.343 0-.883.36-1.2.8-.317.44-.809.8-1.092.8-.283 0-1.08.54-1.771 1.2-.691.66-1.459 1.2-1.708 1.2-.249 0-.712.36-1.029.8-.317.44-.805.8-1.085.8-.279 0-1.024.54-1.655 1.2-.631.66-1.27 1.2-1.42 1.2-.287 0-.671.3-2.691 2.1-.678.605-1.383 1.1-1.565 1.1-.182 0-1.222.855-2.311 1.9-2.276 2.185-3.592 3.3-3.892 3.3-.115 0-2.008 1.845-4.208 4.1-4.796 4.917-3.75 3.871-8.58 8.587-2.203 2.152-4.451 4.543-4.994 5.313-.544.77-1.756 2.17-2.694 3.111-.938.94-1.705 1.866-1.705 2.057 0 .191-.54.925-1.2 1.632-.66.707-1.2 1.424-1.2 1.594 0 .17-.72 1.051-1.6 1.958-.88.907-1.6 1.879-1.6 2.16 0 .281-.36.771-.8 1.088-.44.317-.8.78-.8 1.029 0 .249-.54 1.017-1.2 1.708-.66.691-1.2 1.488-1.2 1.771 0 .283-.36.775-.8 1.092-.44.317-.8.857-.8 1.2 0 .343-.36.883-.8 1.2-.44.317-.8.831-.8 1.141 0 .311-.316.856-.703 1.212-.386.356-.971 1.187-1.3 1.847-.328.66-.912 1.549-1.297 1.975-.385.427-.7.997-.7 1.267 0 .27-.135.551-.3.625-.474.21-2.5 4.171-2.5 4.887 0 .355-.152.646-.337.646-.186 0-.771.855-1.3 1.9-.53 1.045-1.098 1.96-1.263 2.033-.165.074-.3.464-.3.867 0 .403-.137.793-.304.867-.408.179-3.703 6.8-3.699 7.433.002.275-.177.5-.397.5-.22 0-.4.45-.4 1s-.18 1-.4 1c-.22 0-.4.36-.4.8 0 .44-.147.8-.328.8-.18 0-.572.9-.872 2-.3 1.1-.692 2-.872 2-.181 0-.328.36-.328.8 0 .44-.18.8-.4.8-.22 0-.4.362-.4.805 0 .443-.159 1.118-.353 1.5-.476.935-1.065 2.402-1.647 4.095-.264.77-.623 1.76-.797 2.2-.718 1.818-1.603 5.155-1.603 6.046 0 .525-.18.954-.4.954-.22 0-.4.63-.4 1.4 0 .77-.18 1.4-.4 1.4-.22 0-.4.529-.4 1.176 0 .647-.18 1.288-.4 1.424-.22.136-.4.867-.4 1.624 0 .757-.18 1.376-.4 1.376-.22 0-.4.72-.4 1.6 0 .88-.18 1.6-.4 1.6-.22 0-.4.709-.4 1.576 0 .867-.18 1.688-.4 1.824-.22.136-.4 1.047-.4 2.024 0 .977-.18 1.776-.4 1.776-.22 0-.4.9-.4 2s-.18 2-.4 2c-.222 0-.4 1.059-.4 2.376 0 1.307-.18 2.488-.4 2.624-.22.136-.4 1.371-.4 2.744 0 1.463-.207 2.703-.5 2.996-.389.389-.5 6.003-.5 25.347 0 19.522.107 24.882.5 25.013.336.112.5 1.076.5 2.933 0 1.578.172 2.767.4 2.767.222 0 .4 1.067.4 2.4s.178 2.4.4 2.4c.22 0 .4.9.4 2s.18 2 .4 2c.22 0 .4.81.4 1.8s.18 1.8.4 1.8c.22 0 .4.709.4 1.576 0 .867.161 1.676.358 1.798.197.121.46.897.584 1.723.53 3.51.766 4.523 1.102 4.73.196.121.356.84.356 1.597S6.98 256 7.2 256c.22 0 .4.54.4 1.2 0 .66.18 1.2.4 1.2.22 0 .4.5.4 1.111 0 1.519 1.949 7.633 3.247 10.184.194.382.353.961.353 1.287 0 .327.36 1.235.8 2.018.44.783.8 1.779.8 2.212 0 .433.18.788.4.788.22 0 .4.36.4.8 0 .44.18.8.4.8.22 0 .4.54.4 1.2 0 .66.18 1.2.4 1.2.22 0 .4.36.4.8 0 .44.18.8.4.8.22 0 .4.36.4.8 0 .44.18.8.4.8.22 0 .4.349.4.776 0 .427.18.888.4 1.024.22.136.4.597.4 1.024 0 .427.18.776.4.776.22 0 .4.36.4.8 0 .44.135.801.3.803.359.004 1.3 1.941 1.3 2.677 0 .286.18.52.4.52.22 0 .4.236.4.525 0 .288.36.911.8 1.383.44.472.8 1.136.8 1.475 0 .339.18.617.4.617.22 0 .4.36.4.8 0 .44.18.8.4.8.22 0 .4.255.4.568 0 .559 1.181 3.042 1.632 3.432.128.11.487.785.798 1.5.311.715.701 1.3.868 1.3.166 0 .302.27.302.6 0 .33.136.6.302.6.167 0 .527.506.801 1.125.273.619.812 1.474 1.197 1.9.385.426.955 1.27 1.268 1.875.312.605.717 1.1.9 1.1.182 0 .332.236.332.525 0 .288.36.911.8 1.383.44.472.8 1.048.8 1.279 0 .231.54.985 1.2 1.676.66.691 1.2 1.459 1.2 1.708 0 .249.36.712.8 1.029.44.317.8.78.8 1.029 0 .249.495.978 1.1 1.621.605.642 1.63 1.884 2.279 2.759.648.875 1.287 1.681 1.419 1.791.132.11.679.83 1.215 1.6.535.77 1.517 1.961 2.18 2.647 1.502 1.552 2.607 2.897 2.607 3.172 0 .115 1.845 2.008 4.1 4.208 2.255 2.199 4.254 4.155 4.441 4.345.188.19 2.215 2.254 4.505 4.587 2.29 2.332 4.325 4.241 4.523 4.241.197 0 1.389.99 2.649 2.2 1.259 1.21 2.445 2.2 2.635 2.2.19 0 1.088.72 1.995 1.6.907.88 1.799 1.6 1.982 1.6.184 0 .784.45 1.334 1s1.188 1 1.418 1c.23 0 .418.18.418.4 0 .22.23.4.512.4.281 0 .771.36 1.088.8.317.44.809.8 1.092.8.283 0 1.08.54 1.771 1.2.691.66 1.459 1.2 1.708 1.2.249 0 .712.36 1.029.8.317.44.857.8 1.2.8.343 0 .883.36 1.2.8.317.44.882.8 1.255.8.373 0 .738.135.812.3.202.455 2.643 2.1 3.117 2.1.229 0 .416.135.416.301 0 .165.855.742 1.9 1.283 1.045.54 2.527 1.394 3.293 1.899.766.504 1.711.917 2.1.917s.707.18.707.4c0 .22.36.4.8.4.44 0 .8.18.8.4 0 .22.345.4.767.4.421 0 .826.135.9.3.211.475 3.374 2.1 4.087 2.1.591 0 .646-4.111.646-48.2 0-34.969.122-48.2.443-48.2.243 0 2.538 1.051 5.1 2.335 8.725 4.373 21.932 8.92 31.657 10.898 1.21.246 2.92.608 3.8.803 3.927.872 9.717 1.752 18.164 2.762 34.452 4.118 62.037-8.523 69.39-31.798 7.278-23.038 1.104-47.142-14.8-57.78-13.408-8.967-37.799-12.884-59.954-9.627-1.32.194-4.02.566-6 .826-3.79.498-14.343 2.204-17.4 2.814-5.31 1.058-5.515 1.032-9.129-1.188-1.832-1.125-3.393-2.045-3.471-2.045-.078 0-1.608-.9-3.4-2-1.792-1.1-3.325-2-3.406-2-.081 0-1.328-.74-2.771-1.645-2.983-1.87-2.86-1.441-2.25-7.839.206-2.154.572-6.526.815-9.716.242-3.19.608-7.78.813-10.2.206-2.42.565-7.01.8-10.2.235-3.19.594-7.78.799-10.2.204-2.42.564-7.01.8-10.2.236-3.19.595-7.78.798-10.2.203-2.42.562-6.92.799-10 .657-8.56 1.134-14.666 1.608-20.6.238-2.97.954-12.041 1.591-20.157.638-8.117 1.313-14.912 1.5-15.099.188-.188 32.013-.387 70.723-.443L268.2 60.2l.103-23.763c.073-16.745.235-23.921.549-24.3.353-.425.184-.59-.811-.789-.692-.138-1.355-.408-1.473-.6-.118-.191-.655-.348-1.192-.348-.537 0-.976-.18-.976-.4 0-.22-.529-.4-1.176-.4-.647 0-1.278-.163-1.401-.363-.123-.199-1.123-.486-2.223-.637-1.1-.151-2.1-.438-2.223-.637-.123-.2-.754-.363-1.401-.363s-1.176-.18-1.176-.4c0-.22-.63-.4-1.4-.4-.77 0-1.4-.18-1.4-.4 0-.22-.72-.4-1.6-.4-.88 0-1.6-.18-1.6-.4 0-.22-.72-.4-1.6-.4-.88 0-1.6-.18-1.6-.4 0-.22-.72-.4-1.6-.4-.88 0-1.6-.18-1.6-.4 0-.22-.799-.4-1.776-.4s-1.888-.18-2.024-.4c-.136-.22-1.047-.4-2.024-.4-.977 0-1.776-.18-1.776-.4 0-.226-1.133-.4-2.6-.4s-2.6-.174-2.6-.4c0-.231-1.256-.4-2.967-.4-1.982 0-3.02-.162-3.129-.489-.161-.483-36.347-.833-45.204-.437" fill="#dc544c"/>
    <path d="M126.996 60.807c-.138.223-.771 7.018-1.405 15.1-.635 8.081-1.348 17.123-1.586 20.093-.474 5.934-.951 12.04-1.608 20.6-.237 3.08-.596 7.58-.799 10-.203 2.42-.562 7.01-.798 10.2-.236 3.19-.596 7.78-.8 10.2-.205 2.42-.564 7.01-.799 10.2-.235 3.19-.594 7.78-.8 10.2-.205 2.42-.571 7.01-.813 10.2-.243 3.19-.609 7.562-.815 9.716-.61 6.398-.733 5.969 2.25 7.839 1.443.905 2.69 1.645 2.771 1.645.081 0 1.614.9 3.406 2s3.322 2 3.4 2c.078 0 1.639.92 3.471 2.045 3.614 2.22 3.819 2.246 9.129 1.188 3.057-.61 13.61-2.316 17.4-2.814 1.98-.26 4.68-.632 6-.826 9.534-1.401 24.061-1.252 34.6.356 30.172 4.604 45.246 23.259 42.805 52.974-2.264 27.575-17.35 41.719-48.921 45.868-3.999.525-18.747.53-23.12.007-8.447-1.01-14.237-1.89-18.164-2.762-.88-.195-2.59-.557-3.8-.803-9.725-1.978-22.932-6.525-31.657-10.898-2.562-1.284-4.857-2.335-5.1-2.335-.318 0-.443 5.52-.443 19.533v19.532l4.3 2.026c7.344 3.461 10.084 4.525 15.7 6.098.99.277 2.25.646 2.8.819 2.499.788 10.278 2.443 14.8 3.149 9.976 1.556 15.881 2.046 27.779 2.304 21.742.472 36.542-1.331 52.021-6.339 1.98-.641 3.96-1.311 4.4-1.49 7.128-2.896 12.008-5.373 17.124-8.693 14.299-9.279 25.283-22.703 30.88-37.739.369-.99.817-2.16.997-2.6.516-1.264.866-2.306 1.21-3.6.176-.66.597-2.211.935-3.447 2.916-10.641 4.303-31.614 2.722-41.153-.274-1.65-.696-4.17-.939-5.6-5.251-30.946-28.394-53.148-62.929-60.369-13.386-2.799-36.946-2.642-54.2.361-.99.172-3.24.53-5 .795-1.76.265-3.38.511-3.6.547-.541.089-.479-4.334.149-10.734.28-2.86.677-7.045.88-9.3.204-2.255.551-6.035.771-8.4.22-2.365.584-6.37.808-8.9.576-6.487 1.106-12.287 1.59-17.4.23-2.42.527-6.02.661-8 .134-1.98.407-3.915.607-4.3.342-.661 3.204-.7 51.537-.7h51.174l.112-18.9c.061-10.395-.046-19.125-.238-19.4-.454-.65-140.453-.743-140.855-.093" fill="#fbfbfa"/>
    <path d="M268.567 12.454c-.155.25-.148 19.893.015 43.652.247 36.036.207 43.255-.243 43.54-.296.188-23.433.345-51.415.348-30.11.003-50.969.155-51.102.37-.123.2-.41 2.495-.637 5.1-.819 9.388-1.229 14.005-1.595 17.936-.205 2.2-.557 6.025-.781 8.5-.225 2.475-.599 6.525-.83 9-.633 6.757-1.151 12.422-1.564 17.1-.204 2.31-.494 5.145-.644 6.3-.316 2.433-.567 2.34 4.029 1.498 19.896-3.642 37.328-4.231 54.6-1.844 6.311.872 16.397 3.498 21.1 5.494.715.304 1.975.839 2.8 1.191.825.351 2.32 1.055 3.323 1.563 1.645.835 2.385 1.238 5.622 3.06.525.296 1.045.628 1.155.739.11.11.659.436 1.22.724 14.939 7.677 29.231 29.331 32.521 49.275 1.313 7.952 1.459 9.796 1.459 18.361 0 8.519-.127 10.205-1.443 19.239-3.953 27.121-20.551 49.746-45.357 61.824-2.882 1.403-3.941 1.875-5.9 2.63-.495.19-1.305.502-1.8.692-.495.191-1.35.533-1.9.76-4.435 1.832-13.026 4.033-21.4 5.482-13.877 2.401-42.968 2.401-58.8 0-9.05-1.372-21.079-4.148-23.495-5.422-.382-.201-.969-.366-1.305-.366-.336 0-.923-.159-1.305-.353-.382-.195-1.19-.555-1.795-.8-.605-.246-1.595-.648-2.2-.894-.605-.245-1.413-.605-1.795-.8-.382-.194-.967-.353-1.3-.353-.333 0-.605-.18-.605-.4 0-.22-.182-.4-.404-.4-.611 0-4.159-1.701-4.456-2.136-.142-.209-.547-.27-.9-.135-.578.222-.64 2.943-.64 28.258 0 18.409-.137 28.013-.4 28.013-.22 0-.4.18-.4.4 0 .22.36.4.8.4.44 0 .8.18.8.4 0 .22.45.4 1 .4s1 .18 1 .4c0 .22.36.4.8.4.44 0 .8.18.8.4 0 .22.36.4.8.4.44 0 .8.18.8.4 0 .22.36.4.8.4.44 0 .8.18.8.4 0 .22.36.4.8.4.44 0 .8.18.8.4 0 .22.54.4 1.2.4.66 0 1.2.18 1.2.4 0 .22.36.4.8.4.44 0 .8.18.8.4 0 .22.439.4.976.4.537 0 1.088.18 1.224.4.136.22.597.4 1.024.4.427 0 .776.18.776.4 0 .22.45.4 1 .4s1 .18 1 .4c0 .22.54.4 1.2.4.66 0 1.2.18 1.2.4 0 .22.42.4.933.4.514 0 1.057.123 1.208.274.514.514 3.255 1.322 5.359 1.579 1.155.142 2.1.412 2.1.602s.439.345.976.345c.537 0 1.088.18 1.224.4.136.22.867.4 1.624.4.757 0 1.376.18 1.376.4 0 .22.72.4 1.6.4.88 0 1.6.18 1.6.4 0 .22.529.4 1.176.4.647 0 1.288.18 1.424.4.136.22 1.047.4 2.024.4.977 0 1.776.18 1.776.4 0 .22.81.4 1.8.4s1.8.18 1.8.4c0 .22.9.4 2 .4s2 .18 2 .4c0 .222 1.067.4 2.4.4s2.4.178 2.4.4c0 .228 1.189.4 2.767.4 1.857 0 2.821.164 2.933.5.131.393 5.509.5 25.1.5s24.969-.107 25.1-.5c.112-.336 1.076-.5 2.933-.5 1.578 0 2.767-.172 2.767-.4 0-.222 1.059-.4 2.376-.4 1.307 0 2.488-.18 2.624-.4.136-.22 1.137-.4 2.224-.4 1.087 0 1.976-.18 1.976-.4 0-.22.709-.4 1.576-.4.867 0 1.688-.18 1.824-.4.136-.22 1.047-.4 2.024-.4.977 0 1.776-.18 1.776-.4 0-.22.72-.4 1.6-.4.88 0 1.6-.18 1.6-.4 0-.22.619-.4 1.376-.4.757 0 1.488-.18 1.624-.4.136-.22.777-.4 1.424-.4.647 0 1.176-.18 1.176-.4 0-.22.63-.4 1.4-.4.77 0 1.4-.18 1.4-.4 0-.22.429-.4.954-.4 1.024 0 4.799-1.04 5.941-1.637.382-.2.969-.363 1.305-.363.336 0 .923-.159 1.305-.353.382-.195 1.235-.576 1.895-.847.66-.271 1.513-.652 1.895-.847.382-.194 1.057-.353 1.5-.353.443 0 .805-.18.805-.4 0-.22.36-.4.8-.4.44 0 .8-.18.8-.4 0-.22.54-.4 1.2-.4.66 0 1.2-.18 1.2-.4 0-.22.36-.4.8-.4.44 0 .8-.18.8-.4 0-.22.36-.4.8-.4.44 0 .8-.18.8-.4 0-.22.272-.4.605-.4.333 0 .963-.18 1.4-.4.437-.22 1.153-.58 1.59-.8.437-.22 1.067-.4 1.4-.4.333 0 .606-.135.606-.3.001-.165.991-.75 2.199-1.3 1.208-.55 2.198-1.135 2.199-1.3 0-.165.361-.3.801-.3.44 0 .8-.18.8-.4 0-.22.36-.4.8-.4.44 0 .8-.18.8-.4 0-.22.236-.4.525-.4.288 0 .911-.36 1.383-.8.472-.44 1.067-.8 1.321-.8.582 0 4.524-2.095 4.704-2.5.074-.165.311-.3.528-.3.217 0 1.18-.54 2.139-1.2.959-.66 1.897-1.2 2.084-1.2.187 0 .599-.36.916-.8.317-.44.857-.8 1.2-.8.343 0 .883-.36 1.2-.8.317-.44.857-.8 1.2-.8.343 0 .883-.36 1.2-.8.317-.44.809-.8 1.092-.8.283 0 1.08-.54 1.771-1.2.691-.66 1.459-1.2 1.708-1.2.249 0 .712-.36 1.029-.8.317-.44.772-.8 1.01-.8.239 0 1.121-.63 1.962-1.4.841-.77 1.651-1.4 1.8-1.4.149 0 .959-.63 1.8-1.4.841-.77 1.682-1.4 1.87-1.4.187 0 1.331-.99 2.541-2.2 1.21-1.21 2.374-2.2 2.588-2.2.213 0 2.332-1.97 4.708-4.379 5.237-5.307 4.435-4.505 9.742-9.742 2.409-2.376 4.379-4.495 4.379-4.708 0-.214.99-1.378 2.2-2.588 1.21-1.21 2.2-2.354 2.2-2.541 0-.188.72-1.129 1.6-2.091.88-.963 1.6-1.887 1.6-2.054 0-.168.54-.869 1.2-1.56.66-.691 1.2-1.459 1.2-1.708 0-.249.36-.712.8-1.029.44-.317.8-.78.8-1.029 0-.249.54-1.017 1.2-1.708.66-.691 1.2-1.488 1.2-1.771 0-.283.36-.775.8-1.092.44-.317.8-.857.8-1.2 0-.343.36-.883.8-1.2.44-.317.8-.857.8-1.2 0-.343.36-.883.8-1.2.44-.317.8-.729.8-.916 0-.187.54-1.125 1.2-2.084.66-.959 1.2-1.937 1.2-2.172 0-.235.18-.428.4-.428.22 0 .4-.36.4-.8 0-.44.147-.8.326-.8.348 0 1.674-2.558 1.674-3.23 0-.222.36-.79.8-1.262.44-.472.8-1.095.8-1.383 0-.289.18-.525.4-.525.22 0 .4-.36.4-.8 0-.44.18-.8.4-.8.22 0 .4-.345.4-.767 0-.421.137-.826.304-.9.167-.073 1.085-1.753 2.041-3.733.955-1.98 1.898-3.913 2.096-4.295.197-.382.359-.967.359-1.3 0-.333.18-.605.4-.605.22 0 .4-.36.4-.8 0-.44.18-.8.4-.8.22 0 .4-.349.4-.776 0-.427.18-.888.4-1.024.22-.136.4-.687.4-1.224 0-.537.18-.976.4-.976.22 0 .4-.36.4-.8 0-.44.18-.8.4-.8.22 0 .4-.362.4-.805 0-.443.159-1.118.353-1.5.195-.382.576-1.235.847-1.895.271-.66.652-1.513.847-1.895.194-.382.353-1.046.353-1.476 0-.43.18-.893.4-1.029.22-.136.4-.676.4-1.2 0-.524.167-1.056.372-1.183.205-.126.495-1.217.646-2.423.151-1.207.433-2.194.628-2.194s.354-.63.354-1.4c0-.77.18-1.4.4-1.4.22 0 .4-.529.4-1.176 0-.647.18-1.288.4-1.424.22-.136.4-.867.4-1.624 0-.757.18-1.376.4-1.376.22 0 .4-.72.4-1.6 0-.88.18-1.6.4-1.6.22 0 .4-.709.4-1.576 0-.867.18-1.688.4-1.824.22-.136.4-1.047.4-2.024 0-.977.18-1.776.4-1.776.22 0 .4-.889.4-1.976s.18-2.088.4-2.224c.22-.136.4-1.216.4-2.4s.18-2.264.4-2.4c.22-.136.4-1.482.4-2.99 0-1.839.165-2.798.5-2.91.731-.244.731-49.229 0-49.96-.302-.302-.5-1.577-.5-3.22 0-1.547-.173-2.72-.4-2.72-.22 0-.4-.979-.4-2.176s-.18-2.288-.4-2.424c-.22-.136-.4-1.137-.4-2.224 0-1.087-.18-1.976-.4-1.976-.22 0-.4-.81-.4-1.8s-.18-1.8-.4-1.8c-.22 0-.4-.709-.4-1.576 0-.867-.18-1.688-.4-1.824-.22-.136-.4-.867-.4-1.624 0-.757-.18-1.376-.4-1.376-.22 0-.4-.72-.4-1.6 0-.88-.18-1.6-.4-1.6-.22 0-.4-.619-.4-1.376 0-.757-.18-1.488-.4-1.624-.22-.136-.4-.687-.4-1.224 0-.537-.162-.976-.361-.976-.198 0-.486-1.08-.639-2.4-.153-1.32-.441-2.4-.639-2.4-.199 0-.361-.54-.361-1.2 0-.66-.18-1.2-.4-1.2-.22 0-.4-.54-.4-1.2 0-.66-.18-1.2-.4-1.2-.22 0-.4-.362-.4-.805 0-.443-.159-1.118-.353-1.5-.195-.382-.576-1.235-.847-1.895-.271-.66-.652-1.513-.847-1.895-.194-.382-.353-1.057-.353-1.5 0-.443-.18-.805-.4-.805-.22 0-.4-.36-.4-.8 0-.44-.147-.8-.328-.8-.18 0-.572-.9-.872-2-.3-1.1-.692-2-.872-2-.181 0-.328-.36-.328-.8 0-.44-.18-.8-.4-.8-.22 0-.4-.36-.4-.8 0-.44-.18-.8-.4-.8-.22 0-.4-.36-.4-.8 0-.44-.18-.8-.4-.8-.22 0-.4-.36-.4-.8 0-.44-.18-.8-.4-.8-.22 0-.4-.36-.4-.8 0-.44-.146-.8-.325-.8-.179 0-.573-.63-.875-1.4-.302-.77-.696-1.4-.875-1.4-.179 0-.325-.36-.325-.8 0-.44-.18-.8-.4-.8-.22 0-.4-.36-.4-.8 0-.44-.18-.8-.4-.8-.22 0-.4-.36-.4-.8 0-.44-.18-.8-.4-.8-.22 0-.4-.294-.4-.653 0-.359-.405-1.304-.899-2.1-1.676-2.695-2.322-3.845-2.559-4.547-.129-.385-.394-.7-.589-.7-.194 0-.353-.242-.353-.538 0-.296-.36-.864-.8-1.262-.44-.398-.8-.966-.8-1.262 0-.296-.158-.538-.351-.538-.194 0-.576-.54-.849-1.2-.273-.66-.655-1.2-.849-1.2-.193 0-.351-.225-.352-.5 0-.275-.54-1.13-1.199-1.9s-1.199-1.585-1.199-1.812c-.001-.226-.361-.671-.801-.988-.44-.317-.8-.825-.8-1.128 0-.303-.54-1.055-1.2-1.672-.66-.617-1.2-1.285-1.2-1.485 0-.2-.315-.713-.7-1.14-.385-.427-1.236-1.496-1.89-2.375-.655-.88-1.6-2.013-2.1-2.518-.501-.505-.91-1.086-.91-1.291 0-.206-.947-1.323-2.105-2.482-1.157-1.16-2.546-2.739-3.086-3.509s-2.428-2.791-4.195-4.491c-1.768-1.7-3.344-3.23-3.503-3.4-3.119-3.338-6.816-6.938-7.911-7.704-.77-.539-2.03-1.621-2.8-2.405-.77-.784-2.03-1.869-2.8-2.41-.77-.541-2.023-1.57-2.783-2.287-.761-.717-1.528-1.303-1.704-1.303-.176 0-.885-.54-1.576-1.2-.691-.66-1.411-1.2-1.6-1.2-.189 0-.909-.54-1.6-1.2-.691-.66-1.459-1.2-1.708-1.2-.249 0-.712-.36-1.029-.8-.317-.44-.831-.8-1.141-.8-.311 0-.856-.316-1.212-.703-.356-.386-1.142-.957-1.747-1.267-.605-.311-1.1-.715-1.1-.898 0-.182-.32-.332-.712-.332-.391 0-.971-.36-1.288-.8-.317-.44-.773-.8-1.013-.8-.24 0-.785-.325-1.212-.722-.426-.398-1.36-.981-2.075-1.298-.715-.316-1.3-.667-1.3-.778 0-.112-1.395-.923-3.1-1.803-1.705-.879-3.16-1.734-3.233-1.899-.074-.165-.479-.3-.9-.3-.422 0-.767-.18-.767-.4 0-.22-.36-.4-.8-.4-.44 0-.8-.18-.8-.4 0-.22-.36-.4-.8-.4-.44 0-.8-.146-.8-.325 0-.179-.63-.573-1.4-.875-.77-.302-1.4-.696-1.4-.875 0-.179-.36-.325-.8-.325-.44 0-.8-.18-.8-.4 0-.22-.36-.4-.8-.4-.44 0-.8-.18-.8-.4 0-.22-.36-.4-.8-.4-.44 0-.8-.18-.8-.4 0-.22-.36-.4-.8-.4-.44 0-.8-.18-.8-.4 0-.22-.439-.4-.976-.4-.537 0-1.088-.18-1.224-.4-.136-.22-.597-.4-1.024-.4-.427 0-.776-.18-.776-.4 0-.22-.36-.4-.8-.4-.44 0-.8-.18-.8-.4 0-.22-.54-.4-1.2-.4-.66 0-1.2-.18-1.2-.4 0-.22-.36-.4-.8-.4-.44 0-.8-.18-.8-.4 0-.22-.439-.4-.976-.4-.537 0-1.088-.18-1.224-.4-.338-.547-2.487-.506-2.833.054" fill="#24a464"/>
    <path d="M268.216 99.173c-.184.299-15.56.427-51.216.427-28.024 0-51.036.135-51.138.3-.243.392 102.379-.007 102.771-.4.165-.165.198-.402.074-.527-.125-.124-.346-.034-.491.2M164.92 106.4c0 1.21.075 1.705.167 1.1.091-.605.091-1.595 0-2.2-.092-.605-.167-.11-.167 1.1m-.8 9.6c0 1.21.075 1.705.167 1.1.091-.605.091-1.595 0-2.2-.092-.605-.167-.11-.167 1.1m-.8 8.4c0 1.21.075 1.705.167 1.1.091-.605.091-1.595 0-2.2-.092-.605-.167-.11-.167 1.1m-.8 8.8c0 1.21.075 1.705.167 1.1.091-.605.091-1.595 0-2.2-.092-.605-.167-.11-.167 1.1m-.811 9.2c0 .99.078 1.395.173.9.096-.495.096-1.305 0-1.8-.095-.495-.173-.09-.173.9m-.842 8.05c-.037.798-.156 2.058-.266 2.8l-.198 1.35.42-1.34c.231-.737.351-1.997.266-2.8l-.155-1.46-.067 1.45m-.807 9.2c-.033.578-.149 1.658-.259 2.4l-.198 1.35.421-1.343c.231-.738.348-1.818.258-2.4l-.162-1.057-.06 1.05m29.84 3.045c1.155.081 3.045.081 4.2 0 1.155-.081.21-.147-2.1-.147s-3.255.066-2.1.147m11.6-.002c.935.084 2.465.084 3.4 0s.17-.153-1.7-.153c-1.87 0-2.635.069-1.7.153m-15.995.39c.497.096 1.217.092 1.6-.008.382-.1-.025-.179-.905-.174-.88.004-1.193.086-.695.182m21.795-.007c.385.1 1.015.1 1.4 0 .385-.101.07-.183-.7-.183s-1.085.082-.7.183m-29.5.543c-.558.252-.315.288.8.119.88-.134 1.675-.31 1.767-.391.343-.303-1.799-.076-2.567.272m36.6-.019c1.368.438 2.419.438 1.4 0-.44-.189-1.16-.338-1.6-.332-.643.009-.604.075.2.332m-47.2 1.6c-.804.257-.843.323-.2.332.44.006 1.16-.143 1.6-.332 1.019-.438-.032-.438-1.4 0m70.4 3.734c0 .103.581.39 1.291.638.71.247 1.115.285.9.084-.456-.427-2.191-.998-2.191-.722m28.412 18.073c1.644 1.764 3.07 3.152 3.17 3.085.1-.067-1.245-1.51-2.988-3.207l-3.169-3.085 2.987 3.207m15.501 23.612c.371 1.001.726 1.663.79 1.472.128-.385-1.01-3.291-1.289-3.291-.097 0 .128.819.499 1.819M286.08 227c0 .44.144 1.25.32 1.8.254.792.32.833.32.2 0-.44-.144-1.25-.32-1.8-.254-.792-.32-.833-.32-.2m1.221 8.8c.004.88.086 1.193.182.695.096-.497.092-1.217-.008-1.6-.1-.382-.179.025-.174.905m0 17.2c.004.88.086 1.193.182.695.096-.497.092-1.217-.008-1.6-.1-.382-.179.025-.174.905m-.408 3c0 .77.082 1.085.183.7.1-.385.1-1.015 0-1.4-.101-.385-.183-.07-.183.7m-19.489 48.796c-.63.658-1.069 1.26-.975 1.338.094.078.684-.46 1.31-1.196 1.415-1.661 1.206-1.75-.335-.142m-9.418 9.319c-1.973 1.833-1.485 1.604.928-.435.833-.704 1.373-1.273 1.2-1.265-.173.009-1.13.774-2.128 1.7M210.5 334.676c.385.1 1.015.1 1.4 0 .385-.101.07-.183-.7-.183s-1.085.082-.7.183m-56.2.806c.495.096 1.305.096 1.8 0 .495-.095.09-.173-.9-.173s-1.395.078-.9.173m51.205.001c.497.096 1.217.092 1.6-.008.382-.1-.025-.179-.905-.174-.88.004-1.193.086-.695.182m-41.6.8c.497.096 1.217.092 1.6-.008.382-.1-.025-.179-.905-.174-.88.004-1.193.086-.695.182m33.195-.001c.495.096 1.305.096 1.8 0 .495-.095.09-.173-.9-.173s-1.395.078-.9.173m-29.395.405c.609.092 1.509.09 2-.005.492-.095-.005-.171-1.105-.168-1.1.003-1.503.081-.895.173m25.795-.005c.495.096 1.305.096 1.8 0 .495-.095.09-.173-.9-.173s-1.395.078-.9.173" fill="#6cc494"/>
    <path d="M267.8 60.835c.257.363.36 7.325.289 19.465l-.112 18.9h-51.174c-58.134 0-52.054-.407-51.953 3.474l.05 1.926.301-2.06c.166-1.132.424-2.257.574-2.5.196-.316 14.56-.44 51.2-.44 42.53 0 51.002-.09 51.38-.546.769-.926.425-38.328-.355-38.586-.451-.149-.501-.058-.2.367M164.292 108.4c-.157 1.21-.263 3.01-.235 4 .036 1.304.146.917.398-1.4.403-3.689.264-5.895-.163-2.6m-.803 8.556c-.159 1.076-.266 2.786-.237 3.8.042 1.51.116 1.301.407-1.156.406-3.431.267-5.599-.17-2.644m-.8 8.8c-.159 1.076-.266 2.786-.237 3.8.042 1.51.116 1.301.407-1.156.406-3.431.267-5.599-.17-2.644m-.818 9.046c-.145 1.209-.241 3.098-.213 4.198.035 1.334.165.735.393-1.8.373-4.163.242-5.914-.18-2.398m-.803 8.557c-.148 1.074-.244 2.873-.214 3.997.041 1.543.139 1.161.4-1.556.375-3.911.247-5.6-.186-2.441m-.567 8.041c.004.88.086 1.193.182.695.096-.497.092-1.217-.008-1.6-.1-.382-.179.025-.174.905m-.603 5.2c-.939 11.177-.992 10.689 1.102 10.146l1.2-.311-1.3.113-1.3.113v-1.954c0-1.074.19-3.18.423-4.678.232-1.499.367-3.693.3-4.877-.108-1.885-.16-1.706-.425 1.448m31.902 6.195c-3.442.193-2.274.264 5.367.326 5.371.043 9.691.014 9.6-.067-.358-.311-10.797-.492-14.967-.259m-12.4.81c-.672.174.384.216 2.4.097 1.98-.117 3.675-.278 3.767-.358.314-.272-4.967-.049-6.167.261m29.033-.26c.092.08 1.697.246 3.567.369 1.996.132 2.987.088 2.4-.105-.97-.32-6.301-.555-5.967-.264m-34.833 1.062c-.621.204-.091.244 1.4.105 1.32-.123 2.475-.288 2.567-.368.322-.279-2.979-.06-3.967.263m42.433-.257c.092.082 1.247.254 2.567.381 1.555.149 2.048.111 1.4-.11-.986-.337-4.29-.562-3.967-.271M168.6 165.2c-1.094.47.733.47 2.2 0 .975-.312.97-.321-.2-.332-.66-.006-1.56.143-2 .332m53.8 0c.55.176 1.36.326 1.8.332l.8.012-.8-.344c-.44-.189-1.25-.338-1.8-.332l-1 .012 1 .32m-58.6.8c-1.094.47.733.47 2.2 0 .975-.312.97-.321-.2-.332-.66-.006-1.56.143-2 .332m62.4 0c1.196.514 2.195.514 1.4 0-.33-.213-.96-.378-1.4-.366l-.8.022.8.344m3.2.8c.44.189 1.07.344 1.4.344.378 0 .304-.127-.2-.344-.44-.189-1.07-.344-1.4-.344-.378 0-.304.127.2.344m3 .8c.33.213.87.388 1.2.388.533 0 .533-.043 0-.388-.33-.213-.87-.388-1.2-.388-.533 0-.533.043 0 .388m10.4 3.766c0 .091 1.485.901 3.3 1.8 4.285 2.121 6.341 3.324 9.4 5.498 1.375.977 2.498 1.632 2.495 1.456-.01-.581-6.341-4.546-11.686-7.317-3.037-1.575-3.509-1.768-3.509-1.437m15.6 9.159c0 .098.855.866 1.9 1.707 1.045.84 1.54 1.113 1.1.605-.826-.954-3-2.629-3-2.312m4 3.304c0 .125.238.44.53.7.291.259 1.776 1.641 3.3 3.07 2.716 2.549 2.708 2.535-.421-.7-3.194-3.302-3.409-3.496-3.409-3.07m8.109 8.671c.974 1.155 2.722 3.54 3.885 5.3 1.978 2.992 3.378 4.827 2.594 3.4-1.629-2.967-7.339-10.739-7.919-10.778-.182-.012.466.923 1.44 2.078m6.779 9.7c.532 1.435 2.838 5.807 2.985 5.66.099-.098-.365-1.232-1.03-2.52-1.125-2.176-2.295-4.055-1.955-3.14m5.568 12.6c0 .33.155.96.344 1.4.217.504.344.578.344.2 0-.33-.155-.96-.344-1.4-.217-.504-.344-.578-.344-.2m.778 2.8c.012.33.177.96.366 1.4l.344.8.022-.8c.012-.44-.153-1.07-.366-1.4-.345-.533-.385-.533-.366 0m.822 2.8c0 .33.155.96.344 1.4.217.504.344.578.344.2 0-.33-.155-.96-.344-1.4-.217-.504-.344-.578-.344-.2m.824 3.6c0 .55.144 1.45.32 2l.32 1v-1c0-.55-.144-1.45-.32-2l-.32-1v1m.783 4.6c-.009.44.132 1.52.314 2.4l.331 1.6.006-1.4c.003-.77-.138-1.85-.314-2.4-.259-.809-.323-.847-.337-.2m.937 15.8c0 5.83.119 9.7.265 8.6.146-1.1.265-4.97.265-8.6s-.119-7.5-.265-8.6c-.146-1.1-.265 2.77-.265 8.6m-.537 13c-.04.66-.159 1.92-.266 2.8l-.194 1.6.42-1.34c.231-.737.351-1.997.266-2.8-.137-1.294-.163-1.323-.226-.26m-1.009 6.954c-.154.964-.196 1.837-.093 1.94.269.269.754-2.549.546-3.172-.095-.286-.299.268-.453 1.232m-.832 4.268c-.15.803-.184 1.55-.074 1.66.11.11.324-.457.474-1.26.151-.803.184-1.549.074-1.659-.11-.11-.323.456-.474 1.259m-.793 3.207c-.148.586-.178 1.155-.068 1.265.11.11.32-.279.468-.865.147-.587.177-1.156.067-1.266-.11-.11-.32.279-.467.866M283 274.8c-.15.473-.183.95-.073 1.06.11.11.323-.187.473-.66.15-.473.183-.95.073-1.06-.11-.11-.323.187-.473.66m-2.733 8.067c-.362.921-.593 1.74-.513 1.821.08.08.446-.605.813-1.521.366-.917.597-1.736.512-1.821-.085-.085-.45.599-.812 1.521m-2.486 5.57c-.352.681-.569 1.308-.482 1.395.087.087.457-.47.823-1.237.822-1.725.537-1.857-.341-.158m-1.535 2.949c-.355.542-.646 1.095-.646 1.228s-.509.994-1.132 1.914c-1.446 2.136-1.756 2.672-1.545 2.672.225 0 2.063-2.789 3.31-5.022 1.066-1.909 1.074-2.412.013-.792m-7.187 10.914c-1.581 2.054-2.006 2.756-1.03 1.7 1.574-1.703 4.175-5.2 3.867-5.2-.079 0-1.355 1.575-2.837 3.5m-6.171 6.805c-1.602 1.652-2.853 3.064-2.779 3.137.074.074 1.56-1.301 3.303-3.054 1.743-1.753 2.993-3.165 2.779-3.138-.215.028-1.702 1.403-3.303 3.055M257 314.469c-1.32 1.114-4.56 3.444-7.2 5.178-2.64 1.734-4.661 3.153-4.491 3.153.296 0 1.154-.518 5.807-3.506 3.152-2.023 9.275-7.029 8.408-6.872-.068.013-1.204.934-2.524 2.047m-146.167 7.69c.967.925 10.994 5.331 10.57 4.646-.138-.223-.437-.405-.665-.405-.229 0-2.491-.99-5.026-2.2-4.213-2.01-5.339-2.481-4.879-2.041m132.267 1.468c-.825.436-1.5.881-1.5.991 0 .109.72-.169 1.6-.618.88-.449 1.6-.903 1.6-1.008 0-.262-.003-.261-1.7.635m-4.417 2.155c-1.055.506-2.045 1.05-2.2 1.211-.346.356 2.136-.655 3.745-1.527 1.778-.962.633-.728-1.545.316m-115.657 1.983c2.018.879 3.3 1.094 1.574.264-.88-.423-1.87-.776-2.2-.784-.33-.007-.048.227.626.52M129.4 330c1.196.514 2.195.514 1.4 0-.33-.213-.96-.378-1.4-.366l-.8.022.8.344m97.478.295c-.947.327-1.653.664-1.568.748.194.194 4.29-1.008 4.29-1.258 0-.293-.865-.131-2.722.51m-94.678.505c1.196.514 2.195.514 1.4 0-.33-.213-.96-.378-1.4-.366l-.8.022.8.344m3.2.8c.44.189 1.07.344 1.4.344.378 0 .304-.127-.2-.344-.44-.189-1.07-.344-1.4-.344-.378 0-.304.127.2.344m3.2.8c.44.189 1.16.344 1.6.344h.8l-.8-.344c-.44-.189-1.16-.344-1.6-.344h-.8l.8.344m81 0c-.795.514.204.514 1.4 0l.8-.344-.8-.022c-.44-.012-1.07.153-1.4.366m-77.6.8c.55.176 1.45.32 2 .32h1l-1-.32c-.55-.176-1.45-.32-2-.32h-1l1 .32m74 0c-.792.254-.833.32-.2.32.44 0 1.25-.144 1.8-.32.792-.254.833-.32.2-.32-.44 0-1.25.144-1.8.32m-69.6.8c.55.176 1.54.317 2.2.313l1.2-.008-1.2-.305c-.66-.168-1.65-.309-2.2-.313l-1-.007 1 .32m65.8 0-.8.344h.8c.44 0 1.16-.155 1.6-.344l.8-.344h-.8c-.44 0-1.16.155-1.6.344m-60.8.8c.66.168 1.83.305 2.6.305h1.4l-1.2-.305c-.66-.168-1.83-.305-2.6-.305h-1.4l1.2.305m55.8 0-1 .32h1c.55 0 1.45-.144 2-.32l1-.32h-1c-.55 0-1.45.144-2 .32m-48.8.82c.99.177 2.61.309 3.6.294l1.8-.027-2.2-.304c-3.161-.437-5.699-.407-3.2.037m42-.02-1.8.28 1.6.037c.88.02 2.32-.112 3.2-.294l1.6-.331-1.4.014c-.77.008-2.21.14-3.2.294m-32 .853c3.431.334 23.191.34 26 .007 1.21-.143-4.73-.26-13.2-.26-8.47 0-14.23.114-12.8.253" fill="#71c49c"/>
  </g>
</svg>
