<svg id="project_hero_2" xmlns="http://www.w3.org/2000/svg" viewBox="0 0 406 306"><g clip-path="url(#a)"><path opacity=".24" d="M388.829 213.31c-3.281 15.896-13.579 29.298-23.833 41.902-12.51 15.387-25.868 30.862-43.488 39.958-13.424 6.917-28.268 9.638-43.438 10.481-5.288.316-10.614.382-15.924.338-5.842 0-11.684-.2-17.46-.427-16.506-.576-33.008-1.164-49.507-1.762a68982.38 68982.38 0 0 1-81.843-2.921c-11.795-.4-23.591-.815-35.39-1.248-11.845-.421-24.133-.936-34.703-6.313-16.722-8.513-25.734-27.829-27.004-46.558-1.269-18.729 3.88-37.197 9.013-55.261a60143.221 60143.221 0 0 1 15.198-53.658 8294.801 8294.801 0 0 0 7.471-26.4c7.05-24.82 18.557-59.14 35.64-78.966C95.067 19.139 112.527 12.56 129.609 8.23A267.282 267.282 0 0 1 193.904.028c23.352-.111 48.105 3.386 66.191 18.152 23.906 19.466 24.532 46.83 34.232 73.413 9.162 25.064 40.251 24.26 59.966 38.089 10.209 7.178 17.326 17.931 23.102 28.988 8.824 16.794 15.27 36.039 11.434 54.64Z" fill="#00A4FF"/><path d="M297.924 222.156c.255-10.32-1.596-20.569-2.178-30.878a107.048 107.048 0 0 0-40.462 62.992c-.748 3.52-1.319 7.139-.887 10.714.632 5.244 5.493 14.821 11.64 15.481 5.504.587 13.02-9.977 16.218-14.184 9.583-12.632 15.281-28.251 15.669-44.125Z" fill="#00A4FF"/><path d="M297.519 222.328c.255-10.321-1.602-20.569-2.184-30.873a107.024 107.024 0 0 0-40.461 62.993c-.754 3.519-1.325 7.139-.892 10.714.637 5.237 5.492 14.821 11.639 15.475 5.504.587 13.02-9.977 16.224-14.178 9.588-12.638 15.281-28.257 15.674-44.131Z" fill="url(#b)"/><path d="M286.234 232.875c.128-5.354-.831-10.669-1.136-16.018a55.545 55.545 0 0 0-20.99 32.674 16.99 16.99 0 0 0-.46 5.543c.327 2.721 2.849 7.688 6.047 8.031 2.854.305 6.757-5.166 8.414-7.355a39.904 39.904 0 0 0 8.125-22.875Z" fill="url(#c)"/><path d="M308.959 286.008c2.361-7.76 3.537-16.074 8.281-22.637 6.285-8.668 18.075-12.986 22.088-22.913 1.995-4.933 1.662-10.498.676-15.719a10.193 10.193 0 0 0-1.33-3.819c-1.486-2.217-4.484-3.071-7.095-2.555-2.611.515-4.878 2.178-6.701 4.124-6.374 6.784-8.27 16.96-14.965 23.428-6.99 6.762-17.765 8.104-25.292 14.256-6.95 5.704-16.29 31.871-14.316 40.622 1.74 7.699 14.738.034 22.797 1.89 8.497 1.99 13.784-9.971 15.857-16.677Z" fill="#00A4FF"/><path d="M308.959 286.008c2.361-7.76 3.537-16.074 8.281-22.637 6.285-8.668 18.075-12.986 22.088-22.913 1.995-4.933 1.662-10.498.676-15.719a10.193 10.193 0 0 0-1.33-3.819c-1.486-2.217-4.484-3.071-7.095-2.555-2.611.515-4.878 2.178-6.701 4.124-6.374 6.784-8.27 16.96-14.965 23.428-6.99 6.762-17.765 8.104-25.292 14.256-6.956 5.687-17.736 32.081-15.78 40.85 1.735 7.693 16.202-.178 24.261 1.662 8.497 1.99 13.784-9.971 15.857-16.677Z" fill="url(#d)"/><path d="M306.454 268.094c6.995-9.877 19.216-16.556 22.049-28.318.432-1.785.421-4.057-1.153-4.988-2.084-1.247-4.473.997-5.903 2.965-2.444 3.376-5.038 6.707-8.314 9.312-5.909 4.733-13.563 6.729-19.821 10.985-8.43 5.726-14.738 16.445-14.089 26.849.26 4.179 2.256 8.968 6.928 9.611 4.861.671 7.915-3.88 10.138-7.488 3.797-6.108 6.002-13.059 10.165-18.928Z" fill="url(#e)"/><path d="M303.295 241.489c.484 5.742.803 11.497.959 17.265.199 7.012.133 14.19-2.217 20.813-4.052 11.529-14.506 19.815-25.752 24.604a414.813 414.813 0 0 0-6.318-24.942c-1.63-5.692-3.043-9.373 0-14.66 3.325-5.82 8.58-10.953 14.017-14.799 1.452-.998 19.205-9.528 19.311-8.281Z" fill="#00A4FF"/><path d="M293.584 256.005c.399 4.767.665 9.543.798 14.328.161 5.825.105 11.784-1.823 17.276-3.365 9.573-11.878 13.702-21.212 17.67-1.536-6.95-3.448-11.085-5.404-17.947-1.353-4.722-2.528-7.759 0-12.194 2.771-4.833 7.122-9.09 11.639-12.282 1.153-.815 15.891-7.898 16.002-6.851Z" fill="url(#f)"/><path d="m278.064 304.37-82.669-1.258-.21-88.029a41.315 41.315 0 0 1 41.309-41.315h.25a41.326 41.326 0 0 1 29.218 12.099 41.328 41.328 0 0 1 12.102 29.216v89.287Z" fill="#00A4FF"/><path d="M278.064 215.205v90.446c-5.287.316-10.614.382-15.924.338-5.842 0-11.684-.2-17.459-.427-16.506-.576-33.009-1.164-49.507-1.762v-88.595a41.444 41.444 0 0 1 25.473-38.726 41.45 41.45 0 0 1 57.417 38.726Z" fill="url(#g)"/><path d="M94.785 257.302c-1.37-3.996-1.88-8.242-3.148-12.271-1.27-4.03-3.492-8.026-7.206-10.044-3.713-2.017-9.106-1.258-11.157 2.439a8.651 8.651 0 0 0-.843 5.171c.737 6.241 5.942 11.124 7.328 17.255.82 3.641.227 7.466.764 11.163a18.697 18.697 0 0 0 8.16 12.798c2.488 1.624 5.337 2.632 7.875 4.179a21.374 21.374 0 0 1 7.854 8.447 19.5 19.5 0 0 0 6.38-15.193c-.56-12.338-12.482-13.651-16.007-23.944Z" fill="#00A4FF"/><path d="M94.785 257.302c-1.37-3.996-1.88-8.242-3.148-12.271-1.27-4.03-3.492-8.026-7.206-10.044-3.713-2.017-9.106-1.258-11.157 2.439a8.651 8.651 0 0 0-.843 5.171c.737 6.241 5.942 11.124 7.328 17.255.82 3.641.227 7.466.764 11.163a18.697 18.697 0 0 0 8.16 12.798c2.488 1.624 5.337 2.632 7.875 4.179a21.374 21.374 0 0 1 7.854 8.447 19.5 19.5 0 0 0 6.38-15.193c-.56-12.338-12.482-13.651-16.007-23.944Z" fill="url(#h)"/><path d="M109.102 235.131c-.555-2.627-.521-5.376-1.331-7.937-.809-2.56-2.771-5.038-5.443-5.31-3.076-.304-5.747 2.544-6.374 5.576-.626 3.032.255 6.147 1.109 9.118l3.409 11.64c1.058 3.608 1.701 8.38-1.514 10.326-.763.381-1.55.714-2.355.997a7.57 7.57 0 0 0-4.368 7.084c.172 3.664 2.949 6.59 5.365 9.356 2.417 2.766 4.751 6.291 3.825 9.838-.687 2.633-3.115 4.916-2.616 7.588.416 2.217 2.838 3.603 5.094 3.619 2.255.017 4.378-.981 6.412-1.962l9.717-4.694c3.126-1.513 6.413-3.16 8.275-6.097 1.253-1.962 1.735-4.318 1.968-6.651a37.098 37.098 0 0 0-6.729-25.004c-4.728-6.623-12.571-8.463-14.444-17.487Z" fill="#00A4FF"/><path d="M109.102 235.131c-.555-2.627-.521-5.376-1.331-7.937-.809-2.56-2.771-5.038-5.443-5.31-3.076-.304-5.747 2.544-6.374 5.576-.626 3.032.255 6.147 1.109 9.118l3.409 11.64c1.058 3.608 1.701 8.38-1.514 10.326-.763.381-1.55.714-2.355.997a7.57 7.57 0 0 0-4.368 7.084c.172 3.664 2.949 6.59 5.365 9.356 2.417 2.766 4.751 6.291 3.825 9.838-.687 2.633-3.115 4.916-2.616 7.588.416 2.217 2.838 3.603 5.094 3.619 2.255.017 4.378-.981 6.412-1.962l9.717-4.694c3.126-1.513 6.413-3.16 8.275-6.097 1.253-1.962 1.735-4.318 1.968-6.651a37.098 37.098 0 0 0-6.729-25.004c-4.728-6.623-12.571-8.463-14.444-17.487Z" fill="url(#i)"/><path opacity=".24" d="M174.461 221.297h81.588c7.861 0 14.234-6.373 14.234-14.234v-53.137c0-7.861-6.373-14.234-14.234-14.234h-81.588c-7.861 0-14.234 6.373-14.234 14.234v53.137c0 7.861 6.373 14.234 14.234 14.234Z" fill="#00A4FF"/><g opacity=".52" fill="#fff"><path opacity=".52" d="M201.903 160.804h-29.449v2.162h29.449v-2.162ZM190.429 164.983h-17.975v2.029h17.975v-2.029ZM254.236 164.983h-56.557v2.04h56.557v-2.04ZM206.514 169.174h-24.715v2.139h24.715v-2.139ZM219.179 173.347h-29.448v2.162h29.448v-2.162ZM245.784 173.347h-24.682v2.4h24.682v-2.4ZM212.428 177.526h-22.736v2.029h22.736v-2.029ZM261.531 177.526h-46.919v2.245h46.919v-2.245ZM201.903 183.185h-29.449v2.162h29.449v-2.162ZM190.429 187.359h-17.975v2.029h17.975v-2.029ZM254.236 187.359h-56.557v2.04h56.557v-2.04ZM206.514 191.538h-24.715v2.14h24.715v-2.14ZM219.179 195.728h-29.448v2.162h29.448v-2.162ZM245.784 195.728h-24.682v2.4h24.682v-2.4ZM212.428 199.908h-22.736v2.028h22.736v-2.028ZM261.531 199.908h-46.919v2.244h46.919v-2.244Z"/></g><path d="M65.863 201.382h53.143a9.267 9.267 0 0 0 9.268-9.267v-34.614a9.267 9.267 0 0 0-9.268-9.268H65.863a9.267 9.267 0 0 0-9.267 9.268v34.614a9.267 9.267 0 0 0 9.267 9.267Z" fill="#fff"/><g opacity=".52" fill="#00A4FF"><path opacity=".52" d="M83.744 161.979H64.566v1.408h19.178v-1.408ZM76.272 164.701H64.566v1.319h11.706v-1.319ZM117.82 164.701H80.99v1.33h36.83v-1.33ZM86.748 167.428H70.652v1.391h16.096v-1.391ZM94.995 170.149H75.818v1.408h19.177v-1.408ZM112.316 170.149H96.243v1.563h16.073v-1.563ZM90.6 172.87H75.79v1.32H90.6v-1.32ZM122.576 172.87H92.019v1.464h30.557v-1.464ZM83.744 176.556H64.566v1.408h19.178v-1.408ZM76.272 179.278H64.566v1.319h11.706v-1.319ZM117.82 179.278H80.99v1.33h36.83v-1.33ZM86.748 181.999H70.652v1.391h16.096v-1.391ZM94.995 184.726H75.818v1.408h19.177v-1.408ZM112.316 184.726H96.243v1.563h16.073v-1.563ZM90.6 187.448H75.79v1.319H90.6v-1.319ZM122.576 187.448H92.019v1.463h30.557v-1.463Z"/></g><path opacity=".24" d="M210.571 75.63v43.72a9.706 9.706 0 0 1-9.699 9.7h-46.088l-13.624 13.596-10.63-13.596H83.361a9.683 9.683 0 0 1-6.847-2.844 9.673 9.673 0 0 1-2.825-6.856V75.63a9.7 9.7 0 0 1 9.672-9.7h117.505a9.722 9.722 0 0 1 9.705 9.7Z" fill="#00A4FF"/><path d="M200.872 60.15H83.389c-5.35 0-9.688 4.337-9.688 9.688v43.737c0 5.351 4.337 9.689 9.688 9.689h117.483c5.35 0 9.688-4.338 9.688-9.689V69.838c0-5.351-4.338-9.689-9.688-9.689Z" fill="#fff"/><path d="m128.423 120.658 12.765 16.313 15.603-15.603-28.368-.71Z" fill="#fff"/><path d="m98.859 88.378 13.54-6.967v2.012l-11.412 5.72v.055l11.412 5.72v2.012l-13.54-6.972v-1.58ZM113.02 101.015a4.115 4.115 0 0 0 2.799-1.08c.699-.815.965-1.924.965-5.31V82.808h2.566v12.809c0 2.771-.438 4.523-1.691 5.808a6.525 6.525 0 0 1-4.378 1.602l-.261-2.012Zm6.651-22.17a1.492 1.492 0 0 1-.449 1.15 1.496 1.496 0 0 1-1.158.43 1.535 1.535 0 0 1-1.574-1.58 1.562 1.562 0 0 1 1.006-1.5c.201-.076.415-.111.629-.102a1.515 1.515 0 0 1 1.519 1.596l.027.005ZM131.372 96.93l-.188-1.768h-.089a5.264 5.264 0 0 1-4.318 2.1c-2.86 0-4.318-2.011-4.318-4.056 0-3.415 3.032-5.282 8.486-5.255v-.288c0-1.17-.316-3.265-3.209-3.265a7.036 7.036 0 0 0-3.675 1.048l-.554-1.663a8.753 8.753 0 0 1 4.639-1.258c4.318 0 5.365 2.949 5.365 5.78v5.277a19.69 19.69 0 0 0 .239 3.387l-2.378-.039Zm-.377-7.205c-2.771-.061-5.98.438-5.98 3.181a2.262 2.262 0 0 0 .649 1.78 2.271 2.271 0 0 0 1.773.67 3.519 3.519 0 0 0 3.414-2.361c.088-.265.137-.541.144-.82v-2.45ZM138.389 82.808l2.771 7.92a37.252 37.252 0 0 1 1.142 3.62h.089c.321-1.17.726-2.334 1.192-3.62l2.743-7.937h2.688l-5.542 14.123h-2.45l-5.365-14.123 2.732.017ZM159.135 96.93l-.199-1.779h-.089a5.263 5.263 0 0 1-4.323 2.1c-2.855 0-4.318-2.011-4.318-4.056 0-3.415 3.037-5.283 8.491-5.255v-.288c0-1.17-.321-3.265-3.209-3.265a7.036 7.036 0 0 0-3.675 1.048l-.582-1.663a8.754 8.754 0 0 1 4.64-1.258c4.317 0 5.365 2.949 5.365 5.78v5.277a19.59 19.59 0 0 0 .238 3.387l-2.339-.028Zm-.377-7.205c-2.804-.061-5.98.438-5.98 3.181a2.278 2.278 0 0 0 .649 1.78 2.272 2.272 0 0 0 1.773.67 3.527 3.527 0 0 0 3.414-2.361c.088-.265.137-.541.144-.82v-2.45ZM178.091 89.985l-13.535 6.945v-2.012l11.523-5.72v-.055l-11.495-5.72V81.41l13.535 6.94-.028 1.634ZM262.14 264.286v41.703c-5.842 0-11.684-.2-17.459-.427-43.776-1.533-87.563-3.095-131.361-4.683v-36.582a46.367 46.367 0 0 1 46.364-46.365h56.114a46.354 46.354 0 0 1 46.342 46.354Z" fill="#00A4FF"/><path d="M146.625 229.805c5.865-.649 12.056-1.79 16.429-5.759 1.031-.942 2.001-2.378 1.413-3.647-.526-1.142-1.984-1.441-3.237-1.541-9.001-.715-18.008 1.469-26.466 4.639-3.143 1.181-6.496 2.594-8.646 5.294-1.453 1.823-2.511 6.008 1.191 6.008 1.303 0 2.844-1.408 4.008-1.929a26.523 26.523 0 0 1 4.916-1.602c3.409-.798 6.917-1.075 10.392-1.463Z" fill="url(#j)"/><path d="m143.66 211.869-7.715-1.319s-20.564 8.314-22.603 11.307c-2.04 2.993-3.143 25.114-3.143 25.114s-4.157 3.608-3.375 4.705c.781 1.098 8.009-3.215 8.009-3.215l5.648-17.11 32.352-18.413-9.173-1.069Z" fill="#606161"/><path d="m143.66 211.869-7.715-1.319s-20.564 8.314-22.603 11.307c-2.04 2.993-3.143 25.114-3.143 25.114s-4.157 3.608-3.375 4.705c.781 1.098 8.009-3.215 8.009-3.215l5.648-17.11 32.352-18.413-9.173-1.069Z" fill="url(#k)"/><path d="M135.429 198.533c-.931.915-2.217 1.192-3.253 1.94-1.037.748-2.129 1.219-3.021 1.984a3.397 3.397 0 0 0-1.109 3.176.69.69 0 0 0 .194.405.698.698 0 0 0 .627 0 10.407 10.407 0 0 0 2.871-1.685.45.45 0 0 1 .393-.122c.161.061.2.272.311.405a.564.564 0 0 0 .396.166.547.547 0 0 0 .396-.166 1.95 1.95 0 0 0 .449-.743c.671-1.58 2.96-1.691 4.54-1.552 1.929.166 1.275-.737 1.535-.981.261-.244-1.513-1.203-1.369-1.602a17.07 17.07 0 0 0 .987-5.216 2.91 2.91 0 0 0-.205-1.396c-.981-1.951-1.791 1.069-2.018 1.823-.388 1.242-.743 2.605-1.724 3.564Z" fill="url(#l)"/><path d="M137.02 191.738c-.07.22-.07.456 0 .676.089.188.229.348.405.46.65.477 1.383.831 2.161 1.042.232.077.477.105.721.083a1.91 1.91 0 0 0 1.108-.698 10.302 10.302 0 0 0 2.522-5.892c.106-.976.449-4.545-.366-5.255-.914-.798-2.05 1.048-2.666 1.818a20.343 20.343 0 0 0-3.885 7.766Z" fill="#fff"/><path d="M141.681 184.676c-2.344 5.682-3.281 11.873-3.325 18.02 0 1.973-2.855 6.867-1.303 8.092.931.737 1.026.693 2.217.865 2.772.399 12.194 6.202 14.91 5.725 2.716-.476 5.31-16.406 5.271-18.568-.094-6.008-.615-13.241-5.271-17.648-1.79-1.69-4.068-3.652-6.651-2.91-3.043.887-4.706 3.686-5.848 6.424Z" fill="#fff"/><path d="M144.253 181.855c0 .444 0 .992.383 1.192a.849.849 0 0 0 .526.055 2.73 2.73 0 0 0 1.718-1.33 5.335 5.335 0 0 0 .826-3.553 4.814 4.814 0 0 0-1.524-2.865.94.94 0 0 0-.743-.316.971.971 0 0 0-.404.221 5.553 5.553 0 0 0-1.214 1.253c-.333.516-.133.809 0 1.369.346 1.295.491 2.635.432 3.974Z" fill="url(#m)"/><path d="m110.753 197.364 9.584 14.05 10.68 6.186 13.214-6.075-2.915-1.851-8.83-6.28-7.139 3.464-2.195-3.763-12.399-5.731Z" fill="#00A4FF"/><path d="M125.347 206.864s5.476 7.854 5.51 8.131c.033.277 10.641-4.434 10.641-4.434l-9.012-7.206-7.139 3.509Z" fill="url(#n)"/><path d="M149.059 186.544s-1.58 9.628-1.17 10.343c.41.715 2.494 1.58 2.494 1.58s-.709 3.818-5.603 4.739c-4.894.92-3.88 4.938-3.88 4.938s2.649 1.835 7.444 1.225c4.794-.61 7.205-.715 8.352-2.55 1.148-1.834 1.94-8.868 1.109-11.717s-8.746-8.558-8.746-8.558Z" fill="url(#o)"/><path d="M150.55 201.122c-1.802 1.734-4.329 2.472-6.779 2.981-2.088.435-4.2.746-6.324.932-1.458.133-2.971.216-4.279.881-1.308.665-2.35 2.112-2.04 3.542 4.892-.259 9.785-.555 14.677-.887 2.6-.178 5.238-.371 7.699-1.22 1.724-.593 3.453-1.629 4.135-3.325.246-.684.38-1.402.399-2.129a42.006 42.006 0 0 0-.117-5.415 9.043 9.043 0 0 0-.715-3.547c-1.274-2.55-4.473-2.439-4.921.333-.483 2.965.864 5.354-1.735 7.854Z" fill="url(#p)"/><path d="m148.094 184.887 3.359 11.085s7.206-.227 7.954-1.529c.748-1.303-1.729-11.152-5.221-13.264s-6.02.344-6.092 3.708Z" fill="#fff"/><path d="m143.66 211.869-25.529 13.601-1.99 24s-3.974 3.67-3.974 4.739c0 1.07 2.139.46 5.354-.765a18.857 18.857 0 0 0 4.889-2.599l4.434-20.175s26.444-3.67 28.434-9.174a7.343 7.343 0 0 0-2.445-8.558l-9.173-1.069Z" fill="#606161"/><path d="m120.215 211.126 9.904 5.92-8.458-12.699-10.137-5.481 8.691 12.26Z" fill="url(#q)"/><path d="M137.835 177.704a7.228 7.228 0 0 0 1.108 1.552 4.162 4.162 0 0 0 4.778.681 4.922 4.922 0 0 0 2.25-2.898 8.134 8.134 0 0 0 .178-3.725 7.612 7.612 0 0 0-2.328-4.617 7.721 7.721 0 0 0-3.326-1.524 4.06 4.06 0 0 0-1.751-.089 4.639 4.639 0 0 0-1.519.754c-.52.322-.995.711-1.413 1.158-1.985 2.317.842 6.679 2.023 8.708Z" fill="url(#r)"/><path d="M144.625 173.164a.854.854 0 0 0 .338-.737c0-.283-.067-.554-.067-.848a.438.438 0 0 1 .044-.222c.122-.227.488-.127.655.072.437.555.155 1.336.177 2.035a2.18 2.18 0 0 0 .582 1.385 7.87 7.87 0 0 0-.715-6.945 2.211 2.211 0 0 1-.327-.609c-.133-.455.05-.943-.028-1.408-.122-.787-.948-1.286-1.74-1.403-.793-.116-1.597.039-2.395 0-.554-.038-1.108-.171-1.635-.188a6.475 6.475 0 0 0-1.718.238c-1.33.327-2.694.81-3.614 1.824-1.108 1.203-1.374 2.926-1.463 4.55-.05.937 0 2.001.704 2.622a2.65 2.65 0 0 0 1.923.499 3.178 3.178 0 0 0 1.984-.71 6.31 6.31 0 0 0 1.159-1.989.412.412 0 0 1 .161-.189.368.368 0 0 1 .232 0 8.025 8.025 0 0 0 1.569.255 1.942 1.942 0 0 0 1.452-.554.397.397 0 0 1 .216-.155.302.302 0 0 1 .194.05 6.92 6.92 0 0 1 1.513.742c.349.519.618 1.087.799 1.685Z" fill="#606161"/><g opacity=".24" fill="#00A4FF"><path opacity=".24" d="M360.312 177.794H242.698c-5.356 0-9.698 4.342-9.698 9.699v43.781c0 5.356 4.342 9.698 9.698 9.698h117.614c5.356 0 9.698-4.342 9.698-9.698v-43.781c0-5.357-4.342-9.699-9.698-9.699Z"/><path opacity=".24" d="M233 253.989v-22.95h19.404L233 253.989Z"/></g><path d="M360.312 172H242.698c-5.356 0-9.698 4.342-9.698 9.698v43.782c0 5.356 4.342 9.698 9.698 9.698h117.614c5.356 0 9.698-4.342 9.698-9.698v-43.782c0-5.356-4.342-9.698-9.698-9.698Z" fill="#fff"/><path d="m260.249 203.593 14.026-7.23v2.088l-11.824 5.901v.053l11.824 5.931v2.089l-14.026-7.23v-1.602ZM278.49 190.956h2.658v9.113h.061a4.978 4.978 0 0 1 1.906-1.876 5.541 5.541 0 0 1 2.727-.759c1.959 0 5.103 1.207 5.103 6.257v8.734h-2.658v-8.407c0-2.362-.873-4.359-3.387-4.359a3.79 3.79 0 0 0-3.569 2.665 3.168 3.168 0 0 0-.183 1.269v8.832h-2.658v-21.469ZM298.365 193.583v4.207h3.797v2.005h-3.797v7.906c0 1.815.516 2.848 1.997 2.848a5.936 5.936 0 0 0 1.519-.182l.121 1.997a6.716 6.716 0 0 1-2.361.357 3.665 3.665 0 0 1-2.871-1.116c-.759-.76-1.033-2.089-1.033-3.798v-8.012h-2.278v-2.005h2.278v-3.508l2.628-.699ZM305.177 201.747a51.53 51.53 0 0 0-.129-3.957h2.331l.122 2.355h.091a5.044 5.044 0 0 1 4.594-2.689 4.327 4.327 0 0 1 4.132 2.932h.061a5.904 5.904 0 0 1 1.632-1.906 4.962 4.962 0 0 1 3.236-1.026c1.929 0 4.807 1.269 4.807 6.349v8.62h-2.605v-8.286c0-2.817-1.025-4.511-3.175-4.511a3.457 3.457 0 0 0-3.128 2.446c-.14.429-.211.877-.213 1.329v9.022h-2.597v-8.772c0-2.331-1.033-4.025-3.038-4.025a3.982 3.982 0 0 0-3.524 3.965v8.832h-2.597v-10.678ZM330.405 190.956h2.658v21.469h-2.658v-21.469ZM351.366 205.225l-14.027 7.2v-2.089l11.908-5.931v-.053l-11.908-5.931v-2.089l14.027 7.2v1.693Z" fill="#00A4FF"/><path opacity=".63" d="M280.223 143.379H228.48A9.487 9.487 0 0 1 219 133.9V97.488A9.486 9.486 0 0 1 228.48 88h51.743a9.489 9.489 0 0 1 9.48 9.488V133.9a9.487 9.487 0 0 1-9.48 9.479Zm-51.743-52.19a6.38 6.38 0 0 0-6.331 6.33v36.412a6.385 6.385 0 0 0 1.868 4.463 6.385 6.385 0 0 0 4.463 1.868h51.743a6.385 6.385 0 0 0 4.463-1.868 6.385 6.385 0 0 0 1.868-4.463V97.488a6.382 6.382 0 0 0-6.331-6.299H228.48Z" fill="#00A4FF"/><path d="M280.008 88.144h-51.752a7.901 7.901 0 0 0-7.901 7.9v36.42a7.901 7.901 0 0 0 7.901 7.901h51.752a7.9 7.9 0 0 0 7.901-7.901v-36.42a7.9 7.9 0 0 0-7.901-7.9Z" fill="#fff"/><path d="m228.966 114.805 17.046-8.77v2.535l-14.351 7.175v.08l14.351 7.176v2.543l-17.046-8.77v-1.969ZM248.388 127.067l10.253-26.645h2.495l-10.285 26.645h-2.463ZM280.486 116.893l-17.03 8.771v-2.584l14.471-7.175v-.12l-14.471-7.175v-2.583l17.03 8.77v2.096Z" fill="#00A4FF"/></g><defs><linearGradient id="b" x1="291.899" y1="222.83" x2="222.33" y2="308.444" gradientUnits="userSpaceOnUse"><stop stop-color="#010101" stop-opacity="0"/><stop offset=".95" stop-color="#010101"/></linearGradient><linearGradient id="c" x1="1017.99" y1="16243.7" x2="7935.11" y2="20354.3" gradientUnits="userSpaceOnUse"><stop stop-color="#010101" stop-opacity="0"/><stop offset=".95" stop-color="#010101"/></linearGradient><linearGradient id="d" x1="-1660.04" y1="33363.6" x2="17079.4" y2="41898" gradientUnits="userSpaceOnUse"><stop stop-color="#010101" stop-opacity="0"/><stop offset=".95" stop-color="#010101"/></linearGradient><linearGradient id="e" x1="-2091.71" y1="23550.8" x2="11602.2" y2="27584.3" gradientUnits="userSpaceOnUse"><stop stop-color="#010101" stop-opacity="0"/><stop offset=".95" stop-color="#010101"/></linearGradient><linearGradient id="f" x1="13811.3" y1="27935.6" x2="7389.25" y2="31038.9" gradientUnits="userSpaceOnUse"><stop stop-color="#010101" stop-opacity="0"/><stop offset=".95" stop-color="#010101"/></linearGradient><linearGradient id="g" x1="36363.6" y1="58327.3" x2="7073.49" y2="84432.7" gradientUnits="userSpaceOnUse"><stop stop-color="#010101" stop-opacity="0"/><stop offset=".95" stop-color="#010101"/></linearGradient><linearGradient id="h" x1="5005.43" y1="31515" x2="8745.5" y2="32320.1" gradientUnits="userSpaceOnUse"><stop stop-color="#010101" stop-opacity="0"/><stop offset=".95" stop-color="#010101"/></linearGradient><linearGradient id="i" x1="5796.29" y1="37115" x2="14065.8" y2="38644.4" gradientUnits="userSpaceOnUse"><stop stop-color="#010101" stop-opacity="0"/><stop offset=".95" stop-color="#010101"/></linearGradient><linearGradient id="j" x1="9693.23" y1="7379.98" x2="9559.18" y2="6265.66" gradientUnits="userSpaceOnUse"><stop stop-color="#010101" stop-opacity="0"/><stop offset=".95" stop-color="#010101"/></linearGradient><linearGradient id="k" x1="7893.38" y1="18568.8" x2="11728.6" y2="18568.8" gradientUnits="userSpaceOnUse"><stop stop-color="#010101" stop-opacity="0"/><stop offset=".95" stop-color="#010101"/></linearGradient><linearGradient id="l" x1="128.008" y1="199.298" x2="139.786" y2="199.298" gradientUnits="userSpaceOnUse"><stop stop-color="#E5C6D6"/><stop offset=".42" stop-color="#EAD4D0"/><stop offset="1" stop-color="#F0E9CB"/></linearGradient><linearGradient id="m" x1="1110.48" y1="3007.66" x2="1140.95" y2="3007.66" gradientUnits="userSpaceOnUse"><stop stop-color="#E5C6D6"/><stop offset=".42" stop-color="#EAD4D0"/><stop offset="1" stop-color="#F0E9CB"/></linearGradient><linearGradient id="n" x1="4929.24" y1="4464.12" x2="4406.2" y2="4810" gradientUnits="userSpaceOnUse"><stop stop-color="#010101" stop-opacity="0"/><stop offset=".95" stop-color="#010101"/></linearGradient><linearGradient id="o" x1="4263.33" y1="8990.87" x2="6704.43" y2="9462.06" gradientUnits="userSpaceOnUse"><stop stop-color="#010101" stop-opacity="0"/><stop offset=".95" stop-color="#010101"/></linearGradient><linearGradient id="p" x1="5877.45" y1="7325.06" x2="7193.61" y2="7325.06" gradientUnits="userSpaceOnUse"><stop stop-color="#E5C6D6"/><stop offset=".42" stop-color="#EAD4D0"/><stop offset="1" stop-color="#F0E9CB"/></linearGradient><linearGradient id="q" x1="5473.13" y1="7319.44" x2="4360.51" y2="6055.05" gradientUnits="userSpaceOnUse"><stop stop-color="#010101" stop-opacity="0"/><stop offset=".95" stop-color="#010101"/></linearGradient><linearGradient id="r" x1="2777.52" y1="4685.18" x2="2594.48" y2="4752.5" gradientUnits="userSpaceOnUse"><stop stop-color="#E5C6D6"/><stop offset=".42" stop-color="#EAD4D0"/><stop offset="1" stop-color="#F0E9CB"/></linearGradient><clipPath id="a"><path fill="#fff" d="M0 0h406v306H0z"/></clipPath></defs></svg>